<svg width="60" height="60" viewBox="0 0 60 60" fill="none" xmlns="http://www.w3.org/2000/svg">
<rect width="60" height="60" rx="10" fill="#008FE7"/>
<path d="M45.0504 34.8698C44.5493 34.6595 43.9673 34.5372 43.3567 34.5372C42.6699 34.5372 42.0201 34.6916 41.4392 34.9672L41.4666 34.9553L34.5894 38.038C34.593 37.9822 34.6204 37.9347 34.6204 37.8788C34.6025 36.2502 33.2766 34.9375 31.6424 34.9375C31.5603 34.9375 31.4794 34.9411 31.3996 34.947L31.4103 34.9458H26.9077L21.2422 33.2887C21.1684 33.2649 21.0839 33.2518 20.9958 33.2518C20.9946 33.2518 20.9922 33.2518 20.991 33.2518H18.4094V32.3526C18.4094 31.8608 18.0095 31.4616 17.5167 31.4616H12.8951C12.4023 31.4616 12.0024 31.8608 12.0024 32.3526V46.8548C12.0024 47.3466 12.4023 47.7458 12.8951 47.7458H17.5167C18.0095 47.7458 18.4094 47.3466 18.4094 46.8548V45.661C20.5732 45.9983 22.5098 46.5424 24.3451 47.2849L24.1678 47.2207C25.5365 47.7149 27.1172 48 28.7644 48C28.7728 48 28.7811 48 28.7894 48H28.7882C28.7942 48 28.8013 48 28.8085 48C30.7176 48 32.5375 47.6211 34.1978 46.9332L34.105 46.9677C35.5845 46.3108 36.8402 45.6182 38.0292 44.8306L37.9316 44.8912C38.3339 44.6429 38.7338 44.3946 39.1385 44.1559C41.0822 43.0071 42.6437 41.9986 44.053 40.9817C44.7421 40.4923 45.342 40.0088 45.9133 39.4932L45.8967 39.5087C46.3406 39.1499 46.6953 38.6985 46.9333 38.1829L46.9429 38.1604C46.9798 38.0665 47 37.9584 47 37.8444C47 37.7767 46.9929 37.7113 46.9786 37.6484L46.9798 37.6543C46.806 36.4462 46.0811 35.4376 45.0718 34.8781L45.0528 34.8686L45.0504 34.8698ZM16.6241 45.9651H13.7877V33.2435H16.6241V45.9651ZM44.6398 38.2435C44.1494 38.6831 43.6162 39.1095 43.0591 39.5051L43.0032 39.5431C41.6428 40.5244 40.1252 41.5032 38.2256 42.627C37.8114 42.8705 37.4031 43.1235 36.9913 43.3766C35.9749 44.0573 34.8049 44.7071 33.5825 45.2606L33.4278 45.3236C32.0566 45.8867 30.4641 46.2122 28.7954 46.2122C27.3635 46.2122 25.9876 45.971 24.7057 45.5291L24.7938 45.5552C22.943 44.7855 20.7911 44.1951 18.5475 43.8838L18.4082 43.8684V35.0349H20.8625L26.528 36.6921C26.6018 36.7158 26.6863 36.7289 26.7744 36.7289C26.7756 36.7289 26.7779 36.7289 26.7791 36.7289H31.4091C32.4601 36.7289 32.8338 37.3478 32.8338 37.88C32.8338 38.4122 32.4601 39.0311 31.4091 39.0311H23.3048C22.8121 39.0311 22.4122 39.4303 22.4122 39.9221C22.4122 40.4139 22.8121 40.813 23.3048 40.813H32.566C32.5672 40.813 32.5696 40.813 32.5708 40.813C32.7017 40.813 32.8255 40.7845 32.9362 40.7322L32.9314 40.7346L42.2093 36.5769C42.5521 36.4201 42.9532 36.3286 43.3757 36.3286C43.6912 36.3286 43.9947 36.3797 44.2779 36.4735L44.2577 36.4676C44.7136 36.7408 45.0409 37.1851 45.1528 37.7101L45.1551 37.7232C44.9933 37.9121 44.8243 38.082 44.6445 38.24L44.6386 38.2447L44.6398 38.2435ZM46.1061 13.2554H41.4845C40.9917 13.2554 40.5918 13.6545 40.5918 14.1464V15.3474C38.4327 15.0159 36.4938 14.4683 34.6632 13.7151L34.8334 13.7769C33.454 13.2839 31.8626 13 30.2034 13C28.2919 13 26.4685 13.3789 24.8045 14.0644L24.8986 14.0299C23.4203 14.6857 22.1646 15.3794 20.9767 16.1682L21.0731 16.1076C20.672 16.3547 20.2709 16.603 19.8663 16.8418C17.9071 18 16.3455 19.0074 14.9542 20.0147C14.2686 20.4994 13.6711 20.9793 13.1033 21.4925L13.12 21.4783C12.6713 21.8394 12.313 22.2932 12.0702 22.8123L12.0607 22.8349C12.0226 22.9311 12 23.0428 12 23.1592C12 23.2257 12.0071 23.2899 12.0202 23.3516L12.019 23.3457C12.194 24.5526 12.9189 25.56 13.9282 26.1207L13.9472 26.1302C14.3959 26.3512 14.9232 26.4806 15.4814 26.4806C15.4969 26.4806 15.5124 26.4806 15.5279 26.4806H15.5255C16.2539 26.4711 16.943 26.312 17.5667 26.0328L17.5346 26.0459L24.4118 22.9608C24.4082 23.0166 24.3808 23.0653 24.3808 23.1212C24.3975 24.7498 25.7246 26.0637 27.3588 26.0637C27.4409 26.0637 27.5206 26.0601 27.6016 26.0542L27.5909 26.0554H32.0935L37.759 27.7125C37.8328 27.7351 37.9185 27.7482 38.0066 27.7482C38.0078 27.7482 38.009 27.7482 38.0102 27.7482H40.5906V28.6474C40.5906 29.1392 40.9905 29.5384 41.4833 29.5384H46.1049C46.5977 29.5384 46.9976 29.1392 46.9976 28.6474V14.1464C46.9976 13.6545 46.5989 13.2554 46.1061 13.2554ZM38.1399 25.9663L32.4744 24.3103C32.4006 24.2877 32.3149 24.2746 32.2268 24.2746C32.2256 24.2746 32.2244 24.2746 32.2233 24.2746H27.5932C26.5423 24.2746 26.1697 23.6546 26.1697 23.1224C26.1697 22.5902 26.5423 21.9701 27.5932 21.9701H35.6975C36.1903 21.9701 36.5902 21.5709 36.5902 21.0791C36.5902 20.5873 36.1903 20.1882 35.6975 20.1882H26.4351C26.303 20.1882 26.1769 20.2167 26.0638 20.2678L26.0697 20.2654L16.7943 24.4267C16.4527 24.5835 16.0516 24.6762 15.6302 24.6762C15.3136 24.6762 15.0089 24.6251 14.7256 24.5289L14.7459 24.5348C14.2912 24.2628 13.9639 23.8173 13.852 23.2934L13.8496 23.2804C14.0115 23.0915 14.1805 22.9204 14.3626 22.7636L14.3686 22.7589C14.8601 22.3158 15.3934 21.8893 15.9516 21.4961L16.0051 21.4604C17.3525 20.4852 18.87 19.5051 20.7815 18.3766C21.1957 18.1307 21.6064 17.8765 22.017 17.6234C23.0335 16.9427 24.2023 16.2941 25.4258 15.7429L25.5794 15.6812C26.9517 15.1181 28.5442 14.7902 30.2141 14.7902C31.6448 14.7902 33.0195 15.0302 34.3002 15.4733L34.2121 15.4471C36.0618 16.2157 38.2137 16.8073 40.4549 17.1209L40.5954 17.1376V25.9686L38.1399 25.9663ZM45.2135 27.7565H42.3771V15.0373H45.2135V27.7565Z" fill="#001986"/>
</svg>
