<svg width="45" height="45" viewBox="0 0 45 45" fill="none" xmlns="http://www.w3.org/2000/svg">
<rect width="45" height="45" rx="10" fill="#008FE7"/>
<path d="M26.4522 21.1968C26.3059 21.0887 26.1202 21.156 26.0375 21.3473C25.9547 21.5386 26.0063 21.7819 26.1528 21.8901C26.3775 22.0574 26.5147 22.2441 26.6053 22.4369C26.23 22.6093 25.8974 22.6802 25.6034 22.6802C25.1732 22.6797 24.8214 22.5312 24.5246 22.3038C24.2287 22.0758 23.9894 21.7641 23.8079 21.4407C23.5088 20.9076 23.1197 20.4328 22.661 20.0864C22.203 19.741 21.6732 19.5252 21.1045 19.5252C20.6059 19.5247 20.0804 19.6926 19.5597 20.0664C19.3469 20.219 19.1623 20.3975 19.0016 20.5923C18.3682 20.9111 17.8224 21.0259 17.3607 21.0259C16.7028 21.0259 16.2114 20.7948 15.8829 20.5678C15.7189 20.4545 15.5962 20.3418 15.5167 20.2602C15.4769 20.2189 15.4479 20.1862 15.4299 20.1649L15.4112 20.1414L15.4082 20.1378H15.4081C15.2914 19.9812 15.0995 19.9772 14.9787 20.1291C14.8578 20.2816 14.8543 20.5336 14.9709 20.6917C14.9879 20.7142 15.1972 20.9942 15.5979 21.2717C15.7733 21.3931 15.9883 21.5125 16.2366 21.6099C16.1707 21.7313 16.0806 21.9088 15.9824 22.1348C15.7938 22.5699 15.577 23.1805 15.4666 23.9008C15.4336 24.116 15.5406 24.3257 15.7054 24.369C15.8702 24.4118 16.0308 24.2721 16.0636 24.0564C16.1562 23.4499 16.3454 22.9107 16.512 22.5276C16.5951 22.3358 16.6722 22.1833 16.7276 22.0807C16.7553 22.0292 16.7775 21.9899 16.7924 21.9644C16.7998 21.9521 16.8054 21.9425 16.8088 21.9368L16.8123 21.9312L16.8127 21.9307L16.8129 21.9302C16.841 21.8853 16.8597 21.8348 16.8704 21.7818C17.0253 21.8067 17.188 21.822 17.3607 21.8215C17.6808 21.822 18.0313 21.7726 18.4088 21.6604C18.2217 22.1878 18.1447 22.7382 18.1445 23.2427C18.1452 23.7508 18.2192 24.2119 18.3511 24.5792C18.423 24.7781 18.6046 24.8628 18.7566 24.7689C18.9085 24.6751 18.9735 24.4374 18.9015 24.239V24.2384C18.8169 24.0079 18.7524 23.6447 18.7535 23.2427C18.7532 22.8091 18.8248 22.3317 18.9965 21.896C19.1691 21.4604 19.4372 21.0631 19.8525 20.7641C20.2908 20.4504 20.7093 20.3218 21.1045 20.3214C21.5545 20.3214 21.9785 20.4913 22.3569 20.7758C22.735 21.061 23.0653 21.4624 23.3168 21.9113C23.5382 22.3061 23.8344 22.6958 24.2156 22.9897C24.596 23.2835 25.0631 23.4768 25.6034 23.4762C25.9609 23.4762 26.3494 23.3916 26.7665 23.2059L26.7674 23.2344C26.7674 23.4293 26.7442 23.6068 26.721 23.7323C26.7095 23.795 26.698 23.8445 26.69 23.8767C26.6859 23.8925 26.6828 23.9042 26.6809 23.9108L26.6791 23.9169L26.6789 23.9179H26.6791C26.6174 24.1215 26.6933 24.352 26.849 24.4336C27.005 24.5153 27.1824 24.4158 27.2448 24.2117C27.2526 24.1832 27.3752 23.7858 27.3763 23.2344C27.3763 22.9181 27.3339 22.5467 27.1933 22.1801C27.0536 21.8135 26.8125 21.4616 26.4522 21.1968Z" fill="#001986"/>
<path d="M27.1311 18.5387C26.2942 18.5387 25.6222 18.1357 25.1573 17.6083C24.9254 17.3451 24.7471 17.0507 24.6299 16.7692C24.512 16.4871 24.458 16.2188 24.4588 16.0178C24.4588 15.7979 24.3224 15.6199 24.1543 15.6199C23.9861 15.6199 23.8499 15.7979 23.8499 16.0178C23.8507 16.3922 23.9402 16.7758 24.0951 17.1492C24.2572 17.538 24.4941 17.9154 24.7951 18.2479C24.7344 18.3581 24.6507 18.5 24.5438 18.652C24.3119 18.983 23.9775 19.3498 23.5784 19.5349C23.42 19.6089 23.3375 19.8369 23.3941 20.0435C23.4506 20.2506 23.6249 20.3588 23.7831 20.2847C24.3248 20.0302 24.7303 19.5661 25.0054 19.1712C25.1279 18.9947 25.2233 18.8335 25.2937 18.7045C25.7974 19.0845 26.4195 19.3355 27.1312 19.3349C27.2991 19.3349 27.4357 19.1569 27.4357 18.9371C27.4356 18.7173 27.2991 18.5387 27.1311 18.5387Z" fill="#001986"/>
<path d="M25.1015 26.3229C24.5319 26.3229 24.0793 26.179 23.7156 25.9592C23.1714 25.6286 22.8183 25.1206 22.5961 24.614C22.4853 24.3615 22.4088 24.1101 22.3606 23.8892C22.3122 23.6694 22.2933 23.4765 22.2937 23.3597C22.2937 23.1399 22.1576 22.9618 21.9894 22.9618C21.821 22.9618 21.6849 23.1398 21.6849 23.3597C21.6849 23.5031 21.6979 23.6617 21.7247 23.8361C21.7711 24.1401 21.8595 24.4917 22.0027 24.8538C22.2175 25.3966 22.5585 25.9658 23.068 26.3984C23.1956 26.5075 23.3337 26.6065 23.4823 26.6952C23.5055 26.8258 23.5377 27.0584 23.5375 27.339C23.5375 27.5431 23.5207 27.7705 23.4735 28.0037C23.4263 28.2368 23.3495 28.4745 23.2274 28.7056C23.1316 28.8867 23.1661 29.1345 23.3044 29.2595C23.4428 29.3845 23.6324 29.3396 23.728 29.159C23.8942 28.8448 23.9995 28.5184 24.0623 28.2072C24.1253 27.8955 24.1464 27.5992 24.1464 27.339C24.1464 27.2089 24.1409 27.0885 24.1327 26.9784C24.4261 27.0677 24.7476 27.1197 25.1015 27.1192C25.2695 27.1192 25.4058 26.9406 25.4058 26.7208C25.4058 26.5014 25.2695 26.3229 25.1015 26.3229Z" fill="#001986"/>
<path d="M29.237 20.3435C29.0862 20.1737 28.9235 20.0344 28.7518 19.9354C28.5803 19.8365 28.3991 19.7773 28.2136 19.7773C28.0454 19.7773 27.9091 19.9553 27.9091 20.1752C27.9091 20.3956 28.0454 20.5736 28.2136 20.5736C28.3255 20.573 28.4672 20.6241 28.616 20.7368C28.8392 20.9041 29.0712 21.2045 29.2399 21.581C29.4096 21.9569 29.5171 22.4043 29.5169 22.8664C29.5155 23.375 29.393 23.9055 29.0614 24.433C28.9543 24.6028 28.9726 24.8533 29.1024 24.9935C29.2319 25.1333 29.4239 25.1094 29.531 24.94C29.9488 24.2809 30.1271 23.5499 30.1257 22.8664C30.1257 22.4512 30.0621 22.0539 29.9552 21.6917C29.7944 21.1489 29.5383 20.6842 29.237 20.3435Z" fill="#001986"/>
<path d="M18.636 18.2215V18.2209C18.8452 17.897 19.1431 17.643 19.4827 17.4721C19.8217 17.3007 20.2002 17.215 20.5542 17.2155C20.8991 17.2145 21.2202 17.2976 21.4557 17.441C21.6085 17.5328 21.7893 17.4461 21.8599 17.2461C21.9303 17.0467 21.8636 16.8105 21.7111 16.7181C21.3709 16.5136 20.9712 16.4197 20.5543 16.4193C20.1263 16.4193 19.6797 16.5203 19.2638 16.7288C18.8489 16.938 18.4625 17.2574 18.1713 17.7067C18.0626 17.8745 18.0786 18.126 18.2069 18.2678C18.3352 18.4102 18.5274 18.3888 18.636 18.2215Z" fill="#001986"/>
<path d="M32.4155 17.0712L32.4162 17.0729L32.4155 17.0712Z" fill="#001986"/>
<path d="M26.0231 30.3603V30.3619H26.0224L26.0231 30.3603Z" fill="#001986"/>
<path d="M32.8806 19.766C32.8268 19.6946 32.769 19.6268 32.7105 19.56C32.7411 19.3371 32.7589 19.1101 32.7589 18.8795C32.759 18.2684 32.6477 17.6461 32.4157 17.0717C32.1506 16.4132 31.7579 15.8908 31.2995 15.5368C30.9788 15.2889 30.6261 15.1236 30.2605 15.0466C30.1718 14.634 30.0327 14.2411 29.8458 13.8846C29.5346 13.2909 29.0922 12.7992 28.5508 12.4946C28.1636 12.2768 27.7573 12.1722 27.3581 12.1722C27.3581 12.1722 27.3458 12.1717 27.3234 12.1743C26.8166 12.182 26.3233 12.3559 25.8868 12.6737C25.7162 12.4049 25.5188 12.1656 25.2991 11.9641C24.8176 11.5219 24.2289 11.2597 23.599 11.2515C23.5917 11.251 23.583 11.2505 23.5722 11.25C23.5709 11.25 23.5695 11.25 23.568 11.25H23.5676H23.5672H23.567C23.566 11.25 23.5651 11.25 23.5641 11.25C23.5583 11.25 23.5512 11.2505 23.5423 11.251C22.9937 11.2566 22.4754 11.4545 22.0326 11.7973C21.8406 11.9452 21.6655 12.1232 21.5047 12.3211C21.0459 11.9472 20.5038 11.7289 19.9263 11.7253L19.9242 11.7249H19.9105C19.9101 11.7249 19.9099 11.7249 19.9096 11.7249C19.9088 11.7249 19.908 11.7249 19.9071 11.7249C19.9 11.7249 19.8912 11.7253 19.8801 11.7264C19.2658 11.734 18.6897 11.983 18.2148 12.4053C17.9395 12.6497 17.6986 12.9522 17.4994 13.2985C17.2474 13.2092 16.9842 13.1608 16.7154 13.1608C16.4916 13.1608 16.2647 13.1939 16.0389 13.2613C15.3736 13.4607 14.8054 13.9376 14.3982 14.5748H14.3984C14.1126 15.0211 13.9065 15.5475 13.7933 16.1153C13.3594 16.3076 12.9506 16.63 12.6086 17.0855C12.6084 17.086 12.608 17.0865 12.6076 17.087C12.0341 17.8516 11.7454 18.8519 11.7456 19.8451V19.8466V19.8487C11.7456 19.8487 11.7456 19.8496 11.7456 19.8507V19.8614H11.7457C11.7465 20.2067 11.7822 20.551 11.8519 20.8856C11.4609 21.5697 11.2502 22.4007 11.25 23.2511C11.2498 23.8805 11.3659 24.5206 11.6072 25.1108C11.8783 25.7735 12.2771 26.2983 12.741 26.6539C13.0664 26.9033 13.4235 27.0681 13.7936 27.1456C13.9906 27.8378 14.3285 28.4351 14.7608 28.8774C15.275 29.4044 15.9236 29.716 16.6187 29.716C16.6909 29.716 16.7629 29.713 16.8348 29.7058H16.8366H16.8375H16.8377H16.8379C17.1447 29.6768 17.4387 29.5865 17.7126 29.4472C17.8946 29.8287 18.1234 30.1659 18.3891 30.444C18.9032 30.9821 19.5569 31.3035 20.2576 31.3076C20.2601 31.3081 20.2622 31.3081 20.2644 31.3081C20.2668 31.3081 20.2691 31.3081 20.2713 31.3081H20.2717C20.2719 31.3081 20.2719 31.3081 20.2719 31.3081H20.2725H20.2756C20.2766 31.3081 20.277 31.3081 20.278 31.3081L20.2856 31.3076H20.2877C20.3437 31.3071 20.3999 31.304 20.4559 31.2994H20.4566L20.4896 31.2984C20.7404 31.2744 20.9828 31.2106 21.2124 31.1117C21.5017 31.6733 21.9045 32.1472 22.4029 32.4614H22.4027C22.8233 32.7267 23.272 32.8537 23.7123 32.8537C24.141 32.8537 24.5604 32.7318 24.9451 32.5063C25.5042 33.2827 26.2926 33.7489 27.1405 33.75C27.3265 33.75 27.5145 33.7275 27.7026 33.6811C28.425 33.5036 29.0439 32.9981 29.477 32.3079H29.4768C29.7597 31.8586 29.9632 31.3281 30.072 30.7557C30.5716 30.6915 31.0673 30.464 31.5054 30.061C31.9224 29.6784 32.2454 29.1784 32.4619 28.6204C32.6785 28.0629 32.7901 27.4477 32.7901 26.8269C32.7901 26.4132 32.7386 25.9979 32.6373 25.5975C32.8973 25.3206 33.1273 24.9829 33.3107 24.5876C33.6072 23.9499 33.75 23.2389 33.75 22.54C33.7499 21.5183 33.4469 20.5159 32.8806 19.766ZM32.3999 23.8642C32.0938 24.5232 31.6005 24.9334 31.0615 25.0553C30.8957 25.0925 30.7845 25.2986 30.8129 25.5148C30.8414 25.7316 30.9988 25.877 31.1645 25.8398C31.2884 25.8122 31.4103 25.7719 31.5299 25.721C31.6601 26.0729 31.7244 26.4504 31.7244 26.8269C31.7246 27.2293 31.6518 27.6292 31.5118 27.9899C31.3715 28.3506 31.1647 28.6713 30.8932 28.9213C30.5512 29.2345 30.163 29.384 29.7761 29.3845C29.7459 29.3845 29.7157 29.3814 29.6854 29.3794C29.679 29.3131 29.6727 29.2473 29.6634 29.1815V29.181C29.5967 28.7193 29.4593 28.297 29.2707 27.9302L29.2477 27.8853L29.2165 27.8501C28.9857 27.592 28.6796 27.1676 28.4433 26.735C28.3249 26.5192 28.2237 26.3009 28.1556 26.1066C28.0867 25.9122 28.0552 25.7423 28.0563 25.6419C28.0563 25.597 28.0614 25.5669 28.0671 25.5465C28.0731 25.5266 28.0788 25.5149 28.0907 25.4986C28.2095 25.3435 28.2095 25.091 28.0907 24.9359C27.9717 24.7804 27.7789 24.7804 27.6601 24.9359V24.9355C27.586 25.0323 27.53 25.1492 27.4956 25.2716C27.4613 25.394 27.4475 25.52 27.4475 25.6419C27.4486 25.9179 27.5124 26.179 27.6022 26.4382C27.7382 26.8248 27.941 27.2089 28.1601 27.5594C28.3663 27.8889 28.5858 28.1842 28.7822 28.4107C28.9174 28.6831 29.0161 28.9902 29.0649 29.3284C29.0854 29.4707 29.0967 29.612 29.0982 29.7482L29.0984 29.7502C29.0986 29.7686 29.0988 29.7865 29.0988 29.8048C29.0988 30.4068 28.9351 30.9755 28.6537 31.4239C28.3717 31.8718 27.9751 32.1962 27.5056 32.3119C27.3828 32.3421 27.2608 32.3569 27.1408 32.3569C26.4951 32.3574 25.8978 31.934 25.5389 31.2586C25.732 31.0025 25.8966 30.7016 26.0226 30.3609C26.1789 29.9385 26.2608 29.4916 26.2759 29.0499C26.2833 28.8295 26.153 28.6439 25.9852 28.6342C25.8171 28.6245 25.6748 28.7948 25.6674 29.0142C25.6559 29.3524 25.5939 29.6911 25.4743 30.014L25.4741 30.015C25.3465 30.3608 25.1678 30.6501 24.9554 30.8791L24.9542 30.8801C24.6053 31.2545 24.1636 31.4606 23.7124 31.4606C23.428 31.4606 23.1398 31.379 22.8657 31.2066C22.3581 30.8862 22.0056 30.32 21.8498 29.6692L21.8495 29.6687C21.79 29.4217 21.7592 29.1631 21.7592 28.9025C21.7592 28.5306 21.8217 28.1542 21.9541 27.7941C22.0273 27.5961 21.9635 27.3584 21.8121 27.2631C21.6607 27.1677 21.4787 27.2508 21.4057 27.4487C21.2329 27.917 21.1504 28.4143 21.1504 28.9025C21.1504 29.1392 21.1711 29.3734 21.2085 29.6029C20.9707 29.7728 20.7025 29.8809 20.4126 29.909H20.412C20.3648 29.9131 20.318 29.9151 20.2719 29.9151C19.8149 29.9151 19.3914 29.708 19.0547 29.3561C18.7616 29.05 18.5371 28.6353 18.4171 28.1553C18.6315 27.8788 18.809 27.5554 18.9388 27.1968C19.0105 26.9984 18.9456 26.7607 18.7936 26.6668C18.6417 26.5729 18.46 26.6576 18.3882 26.8566C18.2677 27.1901 18.0929 27.486 17.8777 27.7232C17.573 28.0593 17.1881 28.2762 16.7596 28.3164H16.759C16.7119 28.3205 16.6651 28.323 16.6189 28.323C15.6521 28.3236 14.8269 27.3911 14.6876 26.1414L14.6873 26.1383L14.6869 26.1352C14.6795 26.0761 14.6742 26.0138 14.6707 25.9496C14.6674 25.8873 14.6657 25.8261 14.6657 25.7649C14.6657 25.6037 14.6772 25.4461 14.699 25.2926C14.7294 25.0762 14.6202 24.8687 14.4548 24.8283C14.2895 24.7885 14.1308 24.9314 14.1001 25.1477C14.0718 25.3476 14.0568 25.5542 14.0568 25.7649L14.0574 25.7878C13.7837 25.748 13.518 25.6343 13.28 25.4517C12.9798 25.2216 12.7237 24.8855 12.5469 24.4539C12.3897 24.0693 12.3158 23.6582 12.3155 23.2516C12.3155 22.7272 12.44 22.2121 12.6704 21.7816C12.7586 21.9448 12.8591 22.0999 12.9716 22.2442C13.2282 22.5738 13.5258 22.8181 13.8413 22.9772C13.9979 23.0569 14.1743 22.9548 14.2349 22.7498C14.2956 22.5447 14.2176 22.3141 14.061 22.235C13.8202 22.1131 13.5944 21.928 13.3983 21.676L13.3979 21.6755C13.2254 21.4546 13.0914 21.2027 12.9948 20.9328C12.8725 20.591 12.8111 20.2202 12.8111 19.8488C12.8112 19.2025 12.996 18.5603 13.3688 18.062C13.6858 17.6401 14.0847 17.3932 14.4994 17.3192H14.4998H14.5002L14.5013 17.3187C14.589 17.3034 14.6771 17.2953 14.7657 17.2958C15.2598 17.2963 15.752 17.5382 16.133 18.0253C16.2531 18.1788 16.4459 18.1762 16.5635 18.0192C16.6812 17.8621 16.679 17.6101 16.5589 17.4565C16.0741 16.8357 15.4454 16.5184 14.8156 16.5026C14.8874 16.1216 15.0244 15.7676 15.2155 15.4692C15.4801 15.056 15.8439 14.75 16.2771 14.6194C16.4243 14.5755 16.571 14.5541 16.7153 14.5541C16.9704 14.5541 17.2184 14.6204 17.4476 14.7418C17.3824 15.0382 17.3465 15.3509 17.3465 15.6737C17.3465 15.8935 17.4829 16.0716 17.651 16.0716C17.8192 16.0716 17.9554 15.8936 17.9554 15.6737C17.9554 15.3253 18.009 14.9928 18.1048 14.6908C18.2519 14.2296 18.5004 13.8358 18.8131 13.5578C19.1265 13.2798 19.5024 13.1186 19.9101 13.1181C20.4966 13.1186 21.0206 13.4543 21.3798 13.9894L21.3804 13.9899C21.6823 14.4392 21.8644 15.0269 21.8646 15.6737C21.8646 15.8935 22.0007 16.0715 22.1691 16.0715C22.3372 16.0715 22.4734 15.8935 22.4734 15.6737C22.4736 14.9386 22.2918 14.2561 21.9838 13.7036C22.1414 13.418 22.3423 13.1762 22.5748 12.9966C22.8659 12.7717 23.2038 12.6432 23.5674 12.6432C23.985 12.6432 24.3693 12.8135 24.6867 13.1048C25.0041 13.3956 25.2527 13.8072 25.3929 14.2872L25.3927 14.2867C25.4755 14.5709 25.5209 14.8764 25.5211 15.1988C25.5211 15.4186 25.6573 15.5967 25.8255 15.5967C25.9936 15.5967 26.13 15.4187 26.13 15.1988C26.13 14.8703 26.0923 14.553 26.0248 14.2531C26.3853 13.8139 26.8638 13.5655 27.3576 13.5655C27.6154 13.5655 27.8769 13.6328 28.1297 13.7746C28.4822 13.973 28.7653 14.2888 28.9672 14.6734C29.1689 15.0575 29.2879 15.5099 29.308 15.9771C29.3099 16.0251 29.3111 16.0736 29.3111 16.122C29.3109 16.4591 29.26 16.8005 29.1516 17.131C29.0852 17.333 29.1564 17.5671 29.3109 17.6538C29.4654 17.741 29.6444 17.6472 29.7108 17.4452C29.8237 17.1024 29.8887 16.7469 29.9107 16.3929C30.2092 16.4189 30.4999 16.5372 30.7574 16.7362C31.0513 16.9637 31.3014 17.2952 31.4729 17.7207V17.7211C31.6229 18.0925 31.6931 18.4883 31.6933 18.8796C31.6933 19.0592 31.6775 19.2366 31.6484 19.4106C31.4647 19.3178 31.276 19.254 31.0858 19.2188C30.9194 19.1882 30.7655 19.3398 30.7421 19.5581C30.7187 19.7754 30.8346 19.9768 31.0012 20.0075C31.1922 20.0427 31.3804 20.1146 31.561 20.2258C31.593 20.2937 31.6402 20.3502 31.7005 20.3839C31.7382 20.4048 31.7772 20.4151 31.8158 20.4155C31.9282 20.5135 32.0304 20.6232 32.1217 20.7446L32.1176 20.739L32.1225 20.7456C32.4871 21.2271 32.6845 21.8775 32.6843 22.5401C32.6843 22.9924 32.5931 23.449 32.3999 23.8642Z" fill="#001986"/>
</svg>
