<svg width="60" height="60" viewBox="0 0 60 60" fill="none" xmlns="http://www.w3.org/2000/svg">
<rect width="60" height="60" rx="10" fill="#008FE7"/>
<path d="M47 38.8767V46.672C47 47.4054 46.3454 48 45.5376 48H13.4624C12.6548 48 12 47.4054 12 46.672V38.8767C12 35.9819 14.1486 33.4296 17.2248 32.6706L24.2313 30.9415C24.872 30.7832 25.5494 31.0369 25.8813 31.5589L29.5 37.2505L33.1187 31.5589C33.4506 31.0369 34.1288 30.7837 34.7687 30.9415L41.7752 32.6706C44.8515 33.4296 47 35.9817 47 38.8767ZM29.5 13C25.3836 13 22.0348 16.6261 22.0348 21.0834C22.0348 25.5405 25.3836 29.1668 29.5002 29.1668C33.6167 29.1668 36.9654 25.5407 36.9654 21.0834C36.9654 16.6261 33.6165 13 29.5 13Z" fill="#001986"/>
</svg>
