<svg width="60" height="60" viewBox="0 0 60 60" fill="none" xmlns="http://www.w3.org/2000/svg">
<rect width="60" height="60" rx="10" fill="#008FE7"/>
<path fill-rule="evenodd" clip-rule="evenodd" d="M17.5263 10C14.4742 10 12 12.4421 12 15.4545V44.5455C12 47.558 14.4742 50 17.5263 50H41.4737C44.5259 50 47 47.558 47 44.5455V26.3636C47 25.8814 46.8058 25.419 46.4604 25.078L31.7236 10.5326C31.5473 10.3586 31.339 10.2235 31.1124 10.1329C30.8948 10.0459 30.6603 10 30.4211 10H17.5263ZM28.5789 13.6364H17.5263C16.5089 13.6364 15.6842 14.4504 15.6842 15.4545V44.5455C15.6842 45.5496 16.509 46.3636 17.5263 46.3636H41.4737C42.4911 46.3636 43.3158 45.5496 43.3158 44.5455V28.1818H30.4211C29.4037 28.1818 28.5789 27.3678 28.5789 26.3636V13.6364ZM40.7107 24.5455L32.2632 16.2077V24.5455H40.7107Z" fill="#001986"/>
</svg>
