<svg width="45" height="45" viewBox="0 0 45 45" fill="none" xmlns="http://www.w3.org/2000/svg">
<rect width="45" height="45" rx="10" fill="#008FE7"/>
<path d="M23 15.4869L22.447 16.0983C22.5917 16.271 22.7914 16.3685 23 16.3685C23.2086 16.3685 23.4083 16.271 23.553 16.0983L23 15.4869ZM17.8843 28.3235C17.5571 28.0141 17.0734 28.0681 16.8041 28.444C16.5348 28.8199 16.5817 29.3755 16.909 29.6849L17.8843 28.3235ZM13.1174 24.786C13.3208 25.2132 13.7871 25.3701 14.1589 25.1364C14.5308 24.9027 14.6674 24.367 14.464 23.9399L13.1174 24.786ZM13.5349 19.7615C13.5349 17.2332 14.7785 15.113 16.4761 14.2216C18.1253 13.3556 20.3412 13.5849 22.447 16.0983L23.553 14.8755C21.0543 11.8933 18.154 11.4018 15.838 12.6179C13.5704 13.8087 12 16.5735 12 19.7615H13.5349ZM19.416 31.9428C19.9401 32.4174 20.5028 32.9236 21.073 33.3063C21.6431 33.689 22.2935 34 23 34V32.2368C22.6832 32.2368 22.3104 32.0949 21.8474 31.784C21.3846 31.4733 20.9045 31.0455 20.3662 30.5581L19.416 31.9428ZM26.5841 31.9428C28.0438 30.6207 29.9098 29.106 31.3736 27.2125C32.8637 25.2851 34 22.8948 34 19.7615H32.4651C32.4651 22.3445 31.545 24.3354 30.2259 26.0418C28.8806 27.7821 27.1847 29.1536 25.6339 30.5581L26.5841 31.9428ZM34 19.7615C34 16.5735 32.4296 13.8087 30.162 12.6179C27.846 11.4018 24.9457 11.8933 22.447 14.8755L23.553 16.0983C25.6587 13.5849 27.8747 13.3556 29.5239 14.2216C31.2215 15.113 32.4651 17.2332 32.4651 19.7615H34ZM25.6339 30.5581C25.0955 31.0455 24.6154 31.4733 24.1526 31.784C23.6896 32.0949 23.3168 32.2368 23 32.2368V34C23.7065 34 24.3569 33.689 24.927 33.3063C25.4973 32.9236 26.0598 32.4174 26.5841 31.9428L25.6339 30.5581ZM20.3662 30.5581C19.5518 29.8206 18.7241 29.1174 17.8843 28.3235L16.909 29.6849C17.7586 30.4881 18.656 31.2545 19.416 31.9428L20.3662 30.5581ZM14.464 23.9399C13.8897 22.7337 13.5349 21.3675 13.5349 19.7615H12C12 21.6864 12.4297 23.3416 13.1174 24.786L14.464 23.9399Z" fill="#001986"/>
</svg>
