<svg width="45" height="45" viewBox="0 0 45 45" fill="none" xmlns="http://www.w3.org/2000/svg">
<rect width="45" height="45" rx="10" fill="#008FE7"/>
<path d="M14.75 23C14.75 23.5983 15.3283 24.0834 16.0417 24.0834H28.9583C29.6717 24.0834 30.25 23.5983 30.25 23C30.25 22.4017 29.6717 21.9167 28.9583 21.9167H16.0417C15.3283 21.9167 14.75 22.4017 14.75 23Z" fill="#001986"/>
<path fill-rule="evenodd" clip-rule="evenodd" d="M22.5 36C29.4035 36 35 30.4035 35 23.5C35 16.5964 29.4035 11 22.5 11C15.5964 11 10 16.5964 10 23.5C10 30.4035 15.5964 36 22.5 36ZM22.5 33.7195C16.8559 33.7195 12.2805 29.1441 12.2805 23.5C12.2805 17.8559 16.8559 13.2805 22.5 13.2805C28.1441 13.2805 32.7195 17.8559 32.7195 23.5C32.7195 29.1441 28.1441 33.7195 22.5 33.7195Z" fill="#001986"/>
</svg>
